<svg xmlns="http://www.w3.org/2000/svg" width="969.0902932155452" height="746.7967900520929" style="background: #ffffff;"><rect width="100%" height="100%" fill="#ffffff"/><g transform="translate(484.5451354980469,373.3984069824219) scale(1) translate(34.62919950503692,-15.04991253152491)"><path d="M55.8806124455483,145.89136170564367 Q96.85465375536477,102.6165094035752,124.112493130024,111.91220081837179 Q151.37033250468326,121.2078922331684,151.37033250468326,121.2078922331684" stroke="#A5ABB6" stroke-width="1.25" fill="none"/><polygon points="159.06044803351773,123.83043835348333 149.82473598145498,116.05838920982869 147.00045554419273,124.34005208703503" fill="#A5ABB6"/><text x="100.24006311524028" y="114.3330681864906" text-anchor="middle" dominant-baseline="alphabetic" font-size="7.5" font-family="&quot;Open Sans&quot;, sans-serif" fill="#6f757eff" transform="rotate(-12.778755006262456,100.24006311524028,118.0830681864906)"><tspan>HAS_ARTICLE</tspan></text><path d="M57.61281208859939,150.07134447869174 Q102.36392634503378,123.72537011583243,126.83872061508035,125.43943110172108 Q151.31351488512692,127.15349208760972,151.31351488512692,127.15349208760972" stroke="#A5ABB6" stroke-width="1.25" fill="none"/><polygon points="159.41866244824902,127.72112575470128 148.50179933543697,122.57086122012413 147.89050154010758,131.29948167271718" fill="#A5ABB6"/><text x="103.41354491594846" y="127.41889419949158" text-anchor="middle" dominant-baseline="alphabetic" font-size="7.5" font-family="&quot;Open Sans&quot;, sans-serif" fill="#6f757eff" transform="rotate(-12.778755006262456,103.41354491594846,131.16889419949158)"><tspan>HAS_ARTICL...</tspan></text><path d="M58.80644794729623,154.45505093079043 Q108.00388650343648,144.32224691883934,130.13886184714235,138.8455294638093 Q152.2738371908482,133.36881200877926,152.2738371908482,133.36881200877926" stroke="#A5ABB6" stroke-width="1.25" fill="none"/><polygon points="160.161002915211,131.4173402983933 148.18951945280853,129.87244266119387 150.2911043716857,138.36631344127687" fill="#A5ABB6"/><text x="106.77201453625435" y="140.3670891943121" text-anchor="middle" dominant-baseline="alphabetic" font-size="7.5" font-family="&quot;Open Sans&quot;, sans-serif" fill="#6f757eff" transform="rotate(-12.778755006262456,106.77201453625435,144.1170891943121)"><tspan>HAS_ARTICL...</tspan></text><path d="M60.05982125588957,160.8763287944789 Q113.67992514913874,164.91087522562333,134.09438684623325,153.0446813944806 Q154.50884854332776,141.17848756333785,154.50884854332776,141.17848756333785" stroke="#A5ABB6" stroke-width="1.25" fill="none"/><polygon points="161.53336999178774,137.09538538238203 149.6085160426362,138.96647685299627 154.00570300674246,146.5313461051839" fill="#A5ABB6"/><text x="110.4821300243737" y="154.21914170226586" text-anchor="middle" dominant-baseline="alphabetic" font-size="7.5" font-family="&quot;Open Sans&quot;, sans-serif" fill="#6f757eff" transform="rotate(-12.778755006262456,110.4821300243737,157.96914170226586)"><tspan>HAS_ARTICLE</tspan></text><path d="M60.29154337649456,165.39865952462245 Q119.29039755421489,185.9959097227134,138.248221616193,166.29065519036112 Q157.20604567817114,146.58540065800887,157.20604567817114,146.58540065800887" stroke="#A5ABB6" stroke-width="1.25" fill="none"/><polygon points="162.83916935137387,140.7301856591892 151.8866515737287,145.80418598736884 158.19226772630375,151.87062686620254" fill="#A5ABB6"/><text x="114.01959604077388" y="167.24396990701453" text-anchor="middle" dominant-baseline="alphabetic" font-size="7.5" font-family="&quot;Open Sans&quot;, sans-serif" fill="#6f757eff" transform="rotate(-12.778755006262456,114.01959604077388,170.99396990701453)"><tspan>HAS_ARTICLE</tspan></text><polyline points="198.87899297059602,89.14175966747408 216.3602786985719,-5.9383523826285485" stroke="#A5ABB6" stroke-width="1.25" fill="none"/><polygon points="217.8295025286695,-13.929410281121921 211.49231528011487,-3.6559890994144233 220.0980699400308,-2.0737480516170024" fill="#A5ABB6"/><text x="207.61963583458396" y="37.85170364242276" text-anchor="middle" dominant-baseline="alphabetic" font-size="7.5" font-family="&quot;Open Sans&quot;, sans-serif" fill="#6f757eff" transform="rotate(-79.58203414440524,207.61963583458396,41.60170364242276)"><tspan>HAS_CLAUSE</tspan></text><path d="M-21.37622276596856,-31.702963200733574 Q0.731560941248528,-79.4815167504849,21.286088217149555,-93.52077529484237 Q41.840615493050585,-107.56003383919985,41.840615493050585,-107.56003383919985" stroke="#A5ABB6" stroke-width="1.25" fill="none"/><polygon points="48.54994131686836,-112.14267194294008 36.79253119726054,-109.41019462750933 41.72767992436541,-102.18476681724403" fill="#A5ABB6"/><text x="5.48187865239477" y="-78.30650763522581" text-anchor="middle" dominant-baseline="alphabetic" font-size="7.5" font-family="&quot;Open Sans&quot;, sans-serif" fill="#6f757eff" transform="rotate(-49.347322161078694,5.48187865239477,-74.55650763522581)"><tspan>HAS_ARTICLE</tspan></text><path d="M-16.541524421586868,-28.064465584615316 Q17.56687021254922,-66.25045967182487,32.397078104235064,-84.20578951188307 Q47.22728599592091,-102.16111935194127,47.22728599592091,-102.16111935194127" stroke="#A5ABB6" stroke-width="1.25" fill="none"/><polygon points="52.40143844417021,-108.4256042822668 41.86404316872665,-102.53778415856567 48.61041155523108,-96.96561998352797" fill="#A5ABB6"/><text x="16.45487549985812" y="-69.43162607005158" text-anchor="middle" dominant-baseline="alphabetic" font-size="7.5" font-family="&quot;Open Sans&quot;, sans-serif" fill="#6f757eff" transform="rotate(-49.347322161078694,16.45487549985812,-65.68162607005158)"><tspan>HAS_ARTICL...</tspan></text><path d="M-10.699136426273961,-22.528707529098565 Q34.432648588325065,-53.0550429636893,44.604390239688456,-74.75989412081847 Q54.776131891051854,-96.46474527794763,54.776131891051854,-96.46474527794763" stroke="#A5ABB6" stroke-width="1.25" fill="none"/><polygon points="58.22398812025575,-103.821912696373 49.48848165451362,-95.4916034712015 57.41158502820248,-91.77852753205886" fill="#A5ABB6"/><text x="28.235573160357006" y="-60.0258846836062" text-anchor="middle" dominant-baseline="alphabetic" font-size="7.5" font-family="&quot;Open Sans&quot;, sans-serif" fill="#6f757eff" transform="rotate(-49.347322161078694,28.235573160357006,-56.2758846836062)"><tspan>HAS_ARTICLE</tspan></text><path d="M109.18131940353953,-120.12479036377032 Q154.53222326174952,-99.87557583052907,173.21128487666783,-86.45840484211249 Q191.89034649158614,-73.0412338536959,191.89034649158614,-73.0412338536959" stroke="#A5ABB6" stroke-width="1.25" fill="none"/><polygon points="198.48937826093606,-68.30114896973967 191.9046107485818,-78.41766822332903 186.7999039504751,-71.31101862556756" fill="#A5ABB6"/><text x="152.53402810465616" y="-101.97929396963109" text-anchor="middle" dominant-baseline="alphabetic" font-size="7.5" font-family="&quot;Open Sans&quot;, sans-serif" fill="#6f757eff" transform="rotate(29.988074433562645,152.53402810465616,-98.22929396963109)"><tspan>DETAILS</tspan></text><path d="M190.92002740475078,-60.16486021419164 Q144.71787987355032,-80.90551224087241,126.46131732917048,-94.07271190365675 Q108.20475478479065,-107.2399115664411,108.20475478479065,-107.2399115664411" stroke="#A5ABB6" stroke-width="1.25" fill="none"/><polygon points="101.61488719794097,-111.99272864558353 108.18011004480998,-101.86351475846725 113.2985284377326,-108.96029523661305" fill="#A5ABB6"/><text x="147.1401354841605" y="-86.0539490655944" text-anchor="middle" dominant-baseline="alphabetic" font-size="7.5" font-family="&quot;Open Sans&quot;, sans-serif" fill="#6f757eff" transform="rotate(29.988074433562645,147.1401354841605,-82.3039490655944)"><tspan>GUIDED_BY</tspan></text><path d="M-19.263513406630306,30.62892784433853 Q21.46439026798167,68.47252461412144,19.92785592018005,95.08339815554945 Q18.39132157237843,121.69427169697745,18.39132157237843,121.69427169697745" stroke="#A5ABB6" stroke-width="1.25" fill="none"/><polygon points="17.922957314399238,129.80576107451148 22.939186721042603,118.82666422914545 14.203736622159788,118.32227195132171" fill="#A5ABB6"/><text x="10.514147175427865" y="68.56706219238971" text-anchor="middle" dominant-baseline="alphabetic" font-size="7.5" font-family="&quot;Open Sans&quot;, sans-serif" fill="#6f757eff" transform="rotate(68.88807831459802,10.514147175427865,72.31706219238971)"><tspan>SUBORDINATE...</tspan></text><path d="M-23.29599350724771,32.70144136134397 Q1.8526687200516392,77.45996634452258,7.132998061932041,100.22918446915713 Q12.413327403812442,122.99840259379167,12.413327403812442,122.99840259379167" stroke="#A5ABB6" stroke-width="1.25" fill="none"/><polygon points="14.248856021119774,130.91335424841634 15.96925190349214,118.96582885577054 7.445457813896337,120.9425519821015" fill="#A5ABB6"/><text x="-1.7943321658329978" y="73.9049441610452" text-anchor="middle" dominant-baseline="alphabetic" font-size="7.5" font-family="&quot;Open Sans&quot;, sans-serif" fill="#6f757eff" transform="rotate(68.88807831459802,-1.7943321658329978,77.6549441610452)"><tspan>MUST_COMP...</tspan></text><path d="M-29.40695679729509,35.05998697240973 Q-17.594352290759012,86.03056152561564,-6.3880118975241755,105.98142792186192 Q4.818328495710661,125.9322943181082,4.818328495710661,125.9322943181082" stroke="#A5ABB6" stroke-width="1.25" fill="none"/><polygon points="8.797378759716944,133.01627511964287 7.102375748842287,121.06512079074535 -0.5265266528104151,125.35025184429058" fill="#A5ABB6"/><text x="-14.944333220775613" y="79.51335108543731" text-anchor="middle" dominant-baseline="alphabetic" font-size="7.5" font-family="&quot;Open Sans&quot;, sans-serif" fill="#6f757eff" transform="rotate(68.88807831459802,-14.944333220775613,83.26335108543731)"><tspan>IMPLEMENTS</tspan></text><path d="M-33.78917509684799,36.22933920836259 Q-37.51879567698748,94.20608902467228,-19.035506639778973,111.62927294543572 Q-0.5522176025704661,129.05245686619915,-0.5522176025704661,129.05245686619915" stroke="#A5ABB6" stroke-width="1.25" fill="none"/><polygon points="5.360071699521271,134.62564807127828 0.17477408397533312,123.72538139388851 -5.827124136879139,130.09246218075654" fill="#A5ABB6"/><text x="-27.344746013348356" y="84.67349353097657" text-anchor="middle" dominant-baseline="alphabetic" font-size="7.5" font-family="&quot;Open Sans&quot;, sans-serif" fill="#6f757eff" transform="rotate(68.88807831459802,-27.344746013348356,88.42349353097657)"><tspan>GUIDES</tspan></text><path d="M-72.45079257991564,-15.823626599248245 Q-130.8029395667454,-23.19482871763651,-138.8054738076002,-50.43168635350217 Q-146.80800804845498,-77.66854398936783,-146.80800804845498,-77.66854398936783" stroke="#A5ABB6" stroke-width="1.25" fill="none"/><polygon points="-149.09842128176575,-85.46403192923887 -150.1246503109583,-73.43697996378854 -141.72950945263565,-75.90357883043093" fill="#A5ABB6"/><text x="-120.21616994046536" y="-38.72045700597228" text-anchor="middle" dominant-baseline="alphabetic" font-size="7.5" font-family="&quot;Open Sans&quot;, sans-serif" fill="#6f757eff" transform="rotate(41.52417811380653,-120.21616994046536,-34.97045700597228)"><tspan>HAS_APPENDIX</tspan></text><path d="M-70.06597634451734,-19.667928466797914 Q-116.85246520359479,-39.99439269058659,-129.38947079783935,-60.54247545268126 Q-141.9264763920839,-81.09055821477594,-141.9264763920839,-81.09055821477594" stroke="#A5ABB6" stroke-width="1.25" fill="none"/><polygon points="-146.15830298633495,-88.02649857468315 -144.03358789578354,-76.14421298713799 -136.56411366203733,-80.70156470402372" fill="#A5ABB6"/><text x="-111.42434578594771" y="-48.936818015686754" text-anchor="middle" dominant-baseline="alphabetic" font-size="7.5" font-family="&quot;Open Sans&quot;, sans-serif" fill="#6f757eff" transform="rotate(41.52417811380653,-111.42434578594771,-45.186818015686754)"><tspan>HAS_APPEN...</tspan></text><path d="M-67.20115475773146,-23.193864900914143 Q-103.41258686638166,-56.59397677440652,-120.41324716555641,-71.05457904024199 Q-137.41390746473115,-85.51518130607745,-137.41390746473115,-85.51518130607745" stroke="#A5ABB6" stroke-width="1.25" fill="none"/><polygon points="-143.6028602571473,-90.77944652861744 -137.868145356708,-80.15795087072259 -132.1989366555111,-86.82297695486308" fill="#A5ABB6"/><text x="-102.86005898880649" y="-59.22424993895116" text-anchor="middle" dominant-baseline="alphabetic" font-size="7.5" font-family="&quot;Open Sans&quot;, sans-serif" fill="#6f757eff" transform="rotate(41.52417811380653,-102.86005898880649,-55.47424993895116)"><tspan>HAS_APPEN...</tspan></text><path d="M-62.71903954048958,-27.959554356578295 Q-90.00154101542802,-73.2189989863055,-111.18226366000283,-82.56614905802931 Q-132.36298630457765,-91.91329912975314,-132.36298630457765,-91.91329912975314" stroke="#A5ABB6" stroke-width="1.25" fill="none"/><polygon points="-139.79634170299414,-95.19367296833197 -131.270358602883,-86.64904090038317 -127.73764831518271,-94.65419286790862" fill="#A5ABB6"/><text x="-93.77127696898081" y="-70.3277128647356" text-anchor="middle" dominant-baseline="alphabetic" font-size="7.5" font-family="&quot;Open Sans&quot;, sans-serif" fill="#6f757eff" transform="rotate(41.52417811380653,-93.77127696898081,-66.5777128647356)"><tspan>HAS_APPEND...</tspan></text><path d="M-59.18283123996749,-30.78712199528544 Q-76.13243715504946,-90.08938986545327,-102.84150887002423,-93.68456970920276 Q-129.550580584999,-97.27974955295225,-129.550580584999,-97.27974955295225" stroke="#A5ABB6" stroke-width="1.25" fill="none"/><polygon points="-137.6029593074817,-98.36364157234715 -127.03714600987216,-92.52697177184815 -125.86987768129303,-101.19876424221412" fill="#A5ABB6"/><text x="-85.24957153376636" y="-80.81141281978606" text-anchor="middle" dominant-baseline="alphabetic" font-size="7.5" font-family="&quot;Open Sans&quot;, sans-serif" fill="#6f757eff" transform="rotate(41.52417811380653,-85.24957153376636,-77.06141281978606)"><tspan>HAS_APPENDIX</tspan></text><polyline points="-194.88002088810956,-89.40589133536653 -261.91186139052047,-31.14904795747783" stroke="#A5ABB6" stroke-width="1.25" fill="none"/><polygon points="-268.0444676866942,-25.819248241153527 -256.6832745062791,-29.896798304278263 -262.42305881616676,-36.50114354631148" fill="#A5ABB6"/><text x="-228.39594113931503" y="-64.02746964642219" text-anchor="middle" dominant-baseline="alphabetic" font-size="7.5" font-family="&quot;Open Sans&quot;, sans-serif" fill="#6f757eff" transform="rotate(-40.9936475709331,-228.39594113931503,-60.27746964642218)"><tspan>HAS_SOURCE_CHUNK</tspan></text><g class="node" data-id="4:e581abe7-3bae-4f4b-8f34-e13503fd3495:4095"><circle cx="23.675495280952823" cy="163.44830755757135" r="31.25" fill="#d79dff"/><text x="23.675495280952823" y="163.44830755757135" text-anchor="middle" dominant-baseline="auto" font-size="10.330578512396693" font-family="&quot;Open Sans&quot;, sans-serif" fill="#1a1b1d"><tspan>Labor</tspan></text><text x="23.675495280952823" y="173.77888606996805" text-anchor="middle" dominant-baseline="auto" font-size="10.330578512396693" font-family="&quot;Open Sans&quot;, sans-serif" fill="#1a1b1d"><tspan>Code</tspan></text></g><g class="node" data-id="4:e581abe7-3bae-4f4b-8f34-e13503fd3495:1724"><circle cx="193.30750916228283" cy="124.97499937830268" r="31.25" fill="#d79dff"/><text x="193.30750916228283" y="124.97499937830268" text-anchor="middle" dominant-baseline="auto" font-size="10.330578512396693" font-family="&quot;Open Sans&quot;, sans-serif" fill="#1a1b1d"><tspan>Article</tspan></text><text x="193.30750916228283" y="135.30557789069937" text-anchor="middle" dominant-baseline="auto" font-size="10.330578512396693" font-family="&quot;Open Sans&quot;, sans-serif" fill="#1a1b1d"><tspan>169</tspan></text></g><g class="node" data-id="4:e581abe7-3bae-4f4b-8f34-e13503fd3495:2485"><circle cx="224.9159471027357" cy="-46.94220784962084" r="31.25" fill="#d79dff"/><text x="224.9159471027357" y="-46.94220784962084" text-anchor="middle" dominant-baseline="auto" font-size="10.330578512396693" font-family="&quot;Open Sans&quot;, sans-serif" fill="#1a1b1d"><tspan>Clause</tspan></text><text x="224.9159471027357" y="-36.61162933722415" text-anchor="middle" dominant-baseline="auto" font-size="10.330578512396693" font-family="&quot;Open Sans&quot;, sans-serif" fill="#1a1b1d"><tspan>169.2</tspan></text></g><g class="node" data-id="4:e581abe7-3bae-4f4b-8f34-e13503fd3495:4097"><circle cx="-39.398712391411514" cy="0.08889048730093244" r="31.25" fill="#d79dff"/><text x="-39.398712391411514" y="0.08889048730093244" text-anchor="middle" dominant-baseline="auto" font-size="10.330578512396693" font-family="&quot;Open Sans&quot;, sans-serif" fill="#1a1b1d"><tspan>Decree</tspan></text><text x="-39.398712391411514" y="10.419468999697626" text-anchor="middle" dominant-baseline="auto" font-size="10.330578512396693" font-family="&quot;Open Sans&quot;, sans-serif" fill="#1a1b1d"><tspan>135/2020</tspan></text></g><g class="node" data-id="4:e581abe7-3bae-4f4b-8f34-e13503fd3495:1821"><circle cx="75.18392483398293" cy="-133.34848249452153" r="31.25" fill="#d79dff"/><text x="75.18392483398293" y="-133.34848249452153" text-anchor="middle" dominant-baseline="auto" font-size="10.330578512396693" font-family="&quot;Open Sans&quot;, sans-serif" fill="#1a1b1d"><tspan>Article 4</tspan></text><text x="75.18392483398293" y="-123.01790398212484" text-anchor="middle" dominant-baseline="auto" font-size="10.330578512396693" font-family="&quot;Open Sans&quot;, sans-serif" fill="#1a1b1d"><tspan>Retirement</tspan></text></g><g class="node" data-id="4:e581abe7-3bae-4f4b-8f34-e13503fd3495:4061"><circle cx="-168.1751373779591" cy="-113.93978007541942" r="31.25" fill="#d79dff"/><text x="-168.1751373779591" y="-113.93978007541942" text-anchor="middle" dominant-baseline="auto" font-size="10.330578512396693" font-family="&quot;Open Sans&quot;, sans-serif" fill="#1a1b1d"><tspan>Appendix I</tspan></text><text x="-168.1751373779591" y="-103.60920156302272" text-anchor="middle" dominant-baseline="auto" font-size="10.330578512396693" font-family="&quot;Open Sans&quot;, sans-serif" fill="#1a1b1d"><tspan>Female table</tspan></text></g><g class="node" data-id="4:e581abe7-3bae-4f4b-8f34-e13503fd3495:884"><circle cx="-294.17434611280953" cy="-4.434862502104728" r="31.25" fill="#d79dff"/><text x="-294.17434611280953" y="-4.434862502104728" text-anchor="middle" dominant-baseline="auto" font-size="10.330578512396693" font-family="&quot;Open Sans&quot;, sans-serif" fill="#1a1b1d"><tspan>Decree</tspan></text><text x="-294.17434611280953" y="5.895716010291965" text-anchor="middle" dominant-baseline="auto" font-size="10.330578512396693" font-family="&quot;Open Sans&quot;, sans-serif" fill="#1a1b1d"><tspan>135/2020</tspan></text></g></g></svg>